<svg width="72" height="72" viewBox="0 0 72 72" fill="none" xmlns="http://www.w3.org/2000/svg">
<path fill-rule="evenodd" clip-rule="evenodd" d="M35.4856 58.8513L35.7672 58.5732L35.3539 58.9366C35.4007 58.919 35.4455 58.8909 35.4856 58.8513Z" fill="#031E78"/>
<path fill-rule="evenodd" clip-rule="evenodd" d="M16.1578 23.0441V15H38.3974C49.504 15 58.5076 24.0037 58.5076 35.1102V36.2932C58.5076 46.7464 50.0336 55.2205 39.5803 55.2205V26.3988C39.5803 25.2154 38.7337 24.2015 37.5693 23.9905L24.7411 21.6582C24.6257 21.6371 24.5073 21.6741 24.4243 21.757C24.2548 21.9266 24.2971 22.2118 24.5086 22.3248L32.7192 26.7112V55.2205V61.2535V62.0816L20.8604 55.2205L16.1578 52.4997V23.0441Z" fill="#031E78"/>
<path fill-rule="evenodd" clip-rule="evenodd" d="M26.3313 22.4526L36.4845 25.348L36.5485 25.3676L37.2525 25.5839C37.4773 25.5424 37.6936 25.7149 37.6936 25.9526L37.6936 55.2204L37.6936 56.5144C37.6936 56.6146 37.6535 56.7107 37.5822 56.781L35.7675 58.5732L35.3541 58.9366C35.1249 59.0232 34.8485 58.8608 34.8485 58.5846L34.8485 55.2204L34.8485 26.6703C34.8485 26.6222 34.8577 26.5757 34.8746 26.5328C34.8278 26.5301 34.7814 26.5186 34.738 26.4984L34.1312 26.2158L34.1122 26.2069L26.2114 22.7645C26.1164 22.7203 26.0849 22.6006 26.1458 22.5154C26.1877 22.4567 26.2624 22.4314 26.3313 22.4526Z" fill="#031E78"/>
</svg>
